<svg width="34" height="34" viewBox="0 0 34 34" fill="none" xmlns="http://www.w3.org/2000/svg">
<g id="Button">
<g id="Oval">
<circle id="Oval_2" cx="17" cy="17" r="17" fill="#4198C5"/>
</g>
<g id="Combined Shape">
<path id="Combined Shape_2" fill-rule="evenodd" clip-rule="evenodd" d="M9 15C10.1046 15 11 15.8954 11 17C11 18.1046 10.1046 19 9 19C7.89543 19 7 18.1046 7 17C7 15.8954 7.89543 15 9 15ZM17 15C18.1046 15 19 15.8954 19 17C19 18.1046 18.1046 19 17 19C15.8954 19 15 18.1046 15 17C15 15.8954 15.8954 15 17 15ZM27 17C27 15.8954 26.1046 15 25 15C23.8954 15 23 15.8954 23 17C23 18.1046 23.8954 19 25 19C26.1046 19 27 18.1046 27 17Z" fill="white"/>
</g>
</g>
</svg>
