<svg width="18" height="16" viewBox="0 0 18 16" fill="none" xmlns="http://www.w3.org/2000/svg">
<g id="Filter">
<g id="Union">
<path fill-rule="evenodd" clip-rule="evenodd" d="M7.66455 2C7.25034 2 6.91455 2.33579 6.91455 2.75C6.91455 3.16421 7.25034 3.5 7.66455 3.5H16.1646C16.5788 3.5 16.9146 3.16421 16.9146 2.75C16.9146 2.33579 16.5788 2 16.1646 2H7.66455ZM9.66455 7.45321C9.25034 7.45321 8.91455 7.789 8.91455 8.20321C8.91455 8.61743 9.25034 8.95321 9.66455 8.95321H16.1646C16.5788 8.95321 16.9146 8.61743 16.9146 8.20321C16.9146 7.789 16.5788 7.45321 16.1646 7.45321H9.66455ZM10.9146 13.75C10.9146 13.3358 11.2503 13 11.6646 13H16.1646C16.5788 13 16.9146 13.3358 16.9146 13.75C16.9146 14.1642 16.5788 14.5 16.1646 14.5H11.6646C11.2503 14.5 10.9146 14.1642 10.9146 13.75ZM5.89472 12.2356C6.03509 12.3625 6.03509 12.5666 5.89472 12.6892L3.74817 14.5335C3.61286 14.6604 3.38714 14.6604 3.25151 14.5335L1.10528 12.6892C0.964908 12.5668 0.964908 12.3625 1.10528 12.2356C1.24058 12.113 1.46662 12.113 1.60699 12.2356L3.14624 13.5355L3.14371 2.62582C3.14371 2.4489 3.30431 2.30829 3.5 2.30829C3.69569 2.30829 3.85123 2.4489 3.85155 2.62582L3.85408 13.5355L5.39807 12.2356C5.53338 12.113 5.7591 12.113 5.89472 12.2356Z" fill="white"/>
<path d="M5.89472 12.6892L6.05765 12.8788L6.05919 12.8775L5.89472 12.6892ZM5.89472 12.2356L6.06238 12.0501H6.06238L5.89472 12.2356ZM3.74817 14.5335L3.58509 14.3437L3.57715 14.3511L3.74817 14.5335ZM3.25151 14.5335L3.42247 14.3508L3.41445 14.3439L3.25151 14.5335ZM1.10528 12.6892L0.941022 12.8776L0.942338 12.8788L1.10528 12.6892ZM1.10528 12.2356L1.27293 12.421L1.27314 12.4209L1.10528 12.2356ZM1.60699 12.2356L1.4425 12.4239L1.44569 12.4266L1.60699 12.2356ZM3.14624 13.5355L2.98494 13.7265L3.39636 14.0739L3.39624 13.5354L3.14624 13.5355ZM3.14371 2.62582H2.89371V2.62588L3.14371 2.62582ZM3.85155 2.62582L4.10155 2.62576L4.10155 2.62537L3.85155 2.62582ZM3.85408 13.5355L3.60408 13.5355L3.6042 14.0726L4.01509 13.7267L3.85408 13.5355ZM5.39807 12.2356L5.55918 12.427L5.56594 12.4209L5.39807 12.2356ZM7.16455 2.75C7.16455 2.47386 7.38841 2.25 7.66455 2.25V1.75C7.11227 1.75 6.66455 2.19772 6.66455 2.75H7.16455ZM7.66455 3.25C7.38841 3.25 7.16455 3.02614 7.16455 2.75H6.66455C6.66455 3.30228 7.11227 3.75 7.66455 3.75V3.25ZM16.1646 3.25H7.66455V3.75H16.1646V3.25ZM16.6646 2.75C16.6646 3.02614 16.4407 3.25 16.1646 3.25V3.75C16.7168 3.75 17.1646 3.30228 17.1646 2.75H16.6646ZM16.1646 2.25C16.4407 2.25 16.6646 2.47386 16.6646 2.75H17.1646C17.1646 2.19772 16.7168 1.75 16.1646 1.75V2.25ZM7.66455 2.25H16.1646V1.75H7.66455V2.25ZM9.16455 8.20321C9.16455 7.92707 9.38841 7.70321 9.66455 7.70321V7.20321C9.11227 7.20321 8.66455 7.65093 8.66455 8.20321H9.16455ZM9.66455 8.70321C9.38841 8.70321 9.16455 8.47935 9.16455 8.20321H8.66455C8.66455 8.7555 9.11227 9.20321 9.66455 9.20321V8.70321ZM16.1646 8.70321H9.66455V9.20321H16.1646V8.70321ZM16.6646 8.20321C16.6646 8.47935 16.4407 8.70321 16.1646 8.70321V9.20321C16.7168 9.20321 17.1646 8.7555 17.1646 8.20321H16.6646ZM16.1646 7.70321C16.4407 7.70321 16.6646 7.92707 16.6646 8.20321H17.1646C17.1646 7.65093 16.7168 7.20321 16.1646 7.20321V7.70321ZM9.66455 7.70321H16.1646V7.20321H9.66455V7.70321ZM11.6646 12.75C11.1123 12.75 10.6646 13.1977 10.6646 13.75H11.1646C11.1646 13.4739 11.3884 13.25 11.6646 13.25V12.75ZM16.1646 12.75H11.6646V13.25H16.1646V12.75ZM17.1646 13.75C17.1646 13.1977 16.7168 12.75 16.1646 12.75V13.25C16.4407 13.25 16.6646 13.4739 16.6646 13.75H17.1646ZM16.1646 14.75C16.7168 14.75 17.1646 14.3023 17.1646 13.75H16.6646C16.6646 14.0261 16.4407 14.25 16.1646 14.25V14.75ZM11.6646 14.75H16.1646V14.25H11.6646V14.75ZM10.6646 13.75C10.6646 14.3023 11.1123 14.75 11.6646 14.75V14.25C11.3884 14.25 11.1646 14.0261 11.1646 13.75H10.6646ZM6.05919 12.8775C6.31553 12.6535 6.31062 12.2746 6.06238 12.0501L5.72707 12.421C5.74644 12.4386 5.75 12.4546 5.75 12.464C5.75 12.4731 5.74682 12.4864 5.73026 12.5009L6.05919 12.8775ZM3.91109 14.7231L6.05765 12.8788L5.7318 12.4995L3.58525 14.3439L3.91109 14.7231ZM3.08071 14.7161C3.31233 14.9328 3.68759 14.9331 3.91919 14.7159L3.57715 14.3511C3.53813 14.3877 3.46194 14.388 3.42232 14.351L3.08071 14.7161ZM0.942338 12.8788L3.08858 14.7231L3.41445 14.3439L1.26821 12.4996L0.942338 12.8788ZM0.93762 12.0501C0.689516 12.2744 0.684269 12.6539 0.941026 12.8776L1.26952 12.5007C1.25322 12.4865 1.25 12.4733 1.25 12.4641C1.25 12.4546 1.25362 12.4385 1.27293 12.421L0.93762 12.0501ZM1.77146 12.0473C1.53866 11.844 1.16969 11.8399 0.937405 12.0503L1.27314 12.4209C1.31148 12.3861 1.39459 12.382 1.44253 12.4239L1.77146 12.0473ZM3.30754 13.3445L1.76829 12.0446L1.44569 12.4266L2.98494 13.7265L3.30754 13.3445ZM2.89371 2.62588L2.89624 13.5355L3.39624 13.5354L3.39371 2.62576L2.89371 2.62588ZM3.5 2.05829C3.19544 2.05829 2.89371 2.28334 2.89371 2.62582H3.39371C3.39371 2.61653 3.39722 2.60293 3.4143 2.5878C3.43206 2.57206 3.46175 2.55829 3.5 2.55829V2.05829ZM4.10155 2.62537C4.10095 2.28771 3.80957 2.05829 3.5 2.05829V2.55829C3.53784 2.55829 3.56541 2.57173 3.58144 2.58621C3.59689 2.60017 3.60153 2.61409 3.60155 2.62626L4.10155 2.62537ZM4.10408 13.5354L4.10155 2.62576L3.60155 2.62588L3.60408 13.5355L4.10408 13.5354ZM5.23706 12.0444L3.69307 13.3442L4.01509 13.7267L5.55908 12.4268L5.23706 12.0444ZM6.06238 12.0501C5.83167 11.8416 5.46088 11.8413 5.2302 12.0503L5.56594 12.4209C5.60587 12.3847 5.68654 12.3844 5.72707 12.421L6.06238 12.0501Z" fill="white"/>
</g>
</g>
</svg>
